<svg width="482" height="260" viewBox="0 0 482 260" fill="none" xmlns="http://www.w3.org/2000/svg">
<path d="M214 252C332.189 252 428 246.18 428 239C428 231.82 332.189 226 214 226C95.8111 226 0 231.82 0 239C0 246.18 95.8111 252 214 252Z" fill="#E6EBEF"/>
<g opacity="0.1" filter="url(#filter0_f)">
<path d="M212.831 244.728C307.098 244.728 383.517 241.099 383.517 236.624C383.517 232.148 307.098 228.52 212.831 228.52C118.563 228.52 42.144 232.148 42.144 236.624C42.144 241.099 118.563 244.728 212.831 244.728Z" fill="black"/>
</g>
<path d="M356.508 0H74.6978C70.2795 0 66.6978 3.58173 66.6978 8.00001V225.24C66.6978 229.658 70.2795 233.24 74.6978 233.24H356.508C360.926 233.24 364.508 229.658 364.508 225.24V8C364.508 3.58172 360.926 0 356.508 0Z" fill="#03363D"/>
<path d="M212.214 31.8746H138.745C138.627 31.8748 138.511 31.852 138.403 31.8074C138.294 31.7627 138.196 31.6972 138.113 31.6145C138.03 31.5319 137.964 31.4337 137.919 31.3256C137.874 31.2175 137.851 31.1016 137.851 30.9845C137.851 30.8675 137.874 30.7516 137.919 30.6435C137.964 30.5354 138.03 30.4372 138.113 30.3545C138.196 30.2718 138.294 30.2063 138.403 30.1617C138.511 30.1171 138.627 30.0942 138.745 30.0945H212.214C212.45 30.095 212.677 30.189 212.843 30.3558C213.01 30.5227 213.104 30.7488 213.104 30.9845C213.104 31.2203 213.01 31.4464 212.843 31.6132C212.677 31.7801 212.45 31.8741 212.214 31.8746Z" fill="#8B9AA5"/>
<path d="M292.639 41.6649H177.085C176.849 41.6649 176.622 41.5711 176.455 41.4042C176.287 41.2373 176.193 41.0109 176.193 40.7748C176.193 40.5388 176.287 40.3124 176.455 40.1455C176.622 39.9785 176.849 39.8848 177.085 39.8848H292.639C292.756 39.8848 292.872 39.9078 292.98 39.9525C293.088 39.9972 293.187 40.0628 293.269 40.1455C293.352 40.2281 293.418 40.3262 293.463 40.4342C293.508 40.5422 293.531 40.6579 293.531 40.7748C293.531 40.8917 293.508 41.0074 293.463 41.1154C293.418 41.2234 293.352 41.3215 293.269 41.4042C293.187 41.4868 293.088 41.5524 292.98 41.5971C292.872 41.6418 292.756 41.6649 292.639 41.6649Z" fill="#8B9AA5"/>
<path d="M212.571 51.4554H139.102C138.865 51.4554 138.638 51.3616 138.471 51.1947C138.304 51.0278 138.21 50.8014 138.21 50.5653C138.21 50.3293 138.304 50.1029 138.471 49.936C138.638 49.7691 138.865 49.6753 139.102 49.6753H212.571C212.808 49.6753 213.034 49.7691 213.202 49.936C213.369 50.1029 213.463 50.3293 213.463 50.5653C213.463 50.8014 213.369 51.0278 213.202 51.1947C213.034 51.3616 212.808 51.4554 212.571 51.4554Z" fill="#8B9AA5"/>
<path d="M292.638 51.6334H219.169C218.932 51.6334 218.706 51.5396 218.538 51.3727C218.371 51.2058 218.277 50.9794 218.277 50.7433C218.277 50.5073 218.371 50.2809 218.538 50.114C218.706 49.947 218.932 49.8533 219.169 49.8533H292.638C292.875 49.8533 293.102 49.947 293.269 50.114C293.436 50.2809 293.53 50.5073 293.53 50.7433C293.53 50.9794 293.436 51.2058 293.269 51.3727C293.102 51.5396 292.875 51.6334 292.638 51.6334Z" fill="#8B9AA5"/>
<path d="M212.749 61.2459H139.28C139.043 61.2459 138.817 61.1521 138.649 60.9852C138.482 60.8183 138.388 60.5919 138.388 60.3559C138.388 60.1198 138.482 59.8934 138.649 59.7265C138.817 59.5596 139.043 59.4658 139.28 59.4658H212.749C212.986 59.4658 213.213 59.5596 213.38 59.7265C213.547 59.8934 213.641 60.1198 213.641 60.3559C213.641 60.5919 213.547 60.8183 213.38 60.9852C213.213 61.1521 212.986 61.2459 212.749 61.2459Z" fill="#8B9AA5"/>
<path d="M212.928 71.0362H139.459C139.222 71.0362 138.995 70.9424 138.828 70.7755C138.661 70.6086 138.567 70.3822 138.567 70.1461C138.567 69.9101 138.661 69.6837 138.828 69.5168C138.995 69.3499 139.222 69.2561 139.459 69.2561H212.928C213.164 69.2561 213.391 69.3499 213.558 69.5168C213.726 69.6837 213.82 69.9101 213.82 70.1461C213.82 70.3822 213.726 70.6086 213.558 70.7755C213.391 70.9424 213.164 71.0362 212.928 71.0362Z" fill="#8B9AA5"/>
<path d="M246.274 32.0525H225.232C224.995 32.0525 224.769 31.9588 224.601 31.7919C224.434 31.6249 224.34 31.3986 224.34 31.1625C224.34 30.9264 224.434 30.7001 224.601 30.5331C224.769 30.3662 224.995 30.2725 225.232 30.2725H246.274C246.511 30.2725 246.737 30.3662 246.905 30.5331C247.072 30.7001 247.166 30.9264 247.166 31.1625C247.166 31.3986 247.072 31.6249 246.905 31.7919C246.737 31.9588 246.511 32.0525 246.274 32.0525Z" fill="#8B9AA5"/>
<path d="M246.274 61.2459H225.232C224.995 61.2459 224.769 61.1521 224.601 60.9852C224.434 60.8183 224.34 60.5919 224.34 60.3559C224.34 60.1198 224.434 59.8934 224.601 59.7265C224.769 59.5596 224.995 59.4658 225.232 59.4658H246.274C246.511 59.4658 246.737 59.5596 246.905 59.7265C247.072 59.8934 247.166 60.1198 247.166 60.3559C247.166 60.5919 247.072 60.8183 246.905 60.9852C246.737 61.1521 246.511 61.2459 246.274 61.2459Z" fill="#8B9AA5"/>
<path d="M246.274 70.8582H225.232C225.115 70.8585 224.998 70.8356 224.89 70.791C224.782 70.7464 224.683 70.6809 224.6 70.5982C224.517 70.5155 224.451 70.4173 224.406 70.3092C224.362 70.2011 224.338 70.0852 224.338 69.9682C224.338 69.8511 224.362 69.7352 224.406 69.6271C224.451 69.519 224.517 69.4208 224.6 69.3382C224.683 69.2555 224.782 69.19 224.89 69.1453C224.998 69.1007 225.115 69.0779 225.232 69.0781H246.274C246.391 69.0779 246.508 69.1007 246.616 69.1453C246.724 69.19 246.823 69.2555 246.906 69.3382C246.989 69.4208 247.055 69.519 247.1 69.6271C247.145 69.7352 247.168 69.8511 247.168 69.9682C247.168 70.0852 247.145 70.2011 247.1 70.3092C247.055 70.4173 246.989 70.5155 246.906 70.5982C246.823 70.6809 246.724 70.7464 246.616 70.791C246.508 70.8356 246.391 70.8585 246.274 70.8582Z" fill="#8B9AA5"/>
<path d="M281.582 70.8582H260.54C260.304 70.8577 260.078 70.7637 259.911 70.5969C259.744 70.43 259.65 70.2039 259.65 69.9682C259.65 69.7324 259.744 69.5063 259.911 69.3395C260.078 69.1726 260.304 69.0786 260.54 69.0781H281.582C281.7 69.0779 281.816 69.1007 281.924 69.1453C282.033 69.19 282.131 69.2555 282.214 69.3382C282.297 69.4208 282.363 69.519 282.408 69.6271C282.453 69.7352 282.476 69.8511 282.476 69.9682C282.476 70.0852 282.453 70.2011 282.408 70.3092C282.363 70.4173 282.297 70.5155 282.214 70.5982C282.131 70.6809 282.033 70.7464 281.924 70.791C281.816 70.8356 281.7 70.8585 281.582 70.8582Z" fill="#8B9AA5"/>
<path d="M159.609 41.6649H138.566C138.33 41.6649 138.103 41.5711 137.936 41.4042C137.769 41.2373 137.675 41.0109 137.675 40.7748C137.675 40.5388 137.769 40.3124 137.936 40.1455C138.103 39.9785 138.33 39.8848 138.566 39.8848H159.609C159.845 39.8848 160.072 39.9785 160.239 40.1455C160.406 40.3124 160.5 40.5388 160.5 40.7748C160.5 41.0109 160.406 41.2373 160.239 41.4042C160.072 41.5711 159.845 41.6649 159.609 41.6649Z" fill="#8B9AA5"/>
<path d="M212.303 176.061H138.834C138.598 176.061 138.371 175.967 138.204 175.8C138.036 175.633 137.942 175.407 137.942 175.171C137.942 174.935 138.036 174.708 138.204 174.541C138.371 174.375 138.598 174.281 138.834 174.281H212.303C212.54 174.281 212.767 174.375 212.934 174.541C213.101 174.708 213.195 174.935 213.195 175.171C213.195 175.407 213.101 175.633 212.934 175.8C212.767 175.967 212.54 176.061 212.303 176.061Z" fill="#8B9AA5"/>
<path d="M211.947 195.641H138.478C138.241 195.641 138.014 195.548 137.847 195.381C137.68 195.214 137.586 194.987 137.586 194.751C137.586 194.515 137.68 194.289 137.847 194.122C138.014 193.955 138.241 193.861 138.478 193.861H211.947C212.184 193.861 212.41 193.955 212.578 194.122C212.745 194.289 212.839 194.515 212.839 194.751C212.839 194.987 212.745 195.214 212.578 195.381C212.41 195.548 212.184 195.641 211.947 195.641Z" fill="#8B9AA5"/>
<path d="M212.125 205.432H138.656C138.538 205.433 138.422 205.41 138.314 205.365C138.206 205.321 138.107 205.255 138.024 205.172C137.941 205.09 137.875 204.992 137.83 204.883C137.785 204.775 137.762 204.659 137.762 204.542C137.762 204.425 137.785 204.309 137.83 204.201C137.875 204.093 137.941 203.995 138.024 203.912C138.107 203.83 138.206 203.764 138.314 203.72C138.422 203.675 138.538 203.652 138.656 203.652H212.125C212.243 203.652 212.359 203.675 212.467 203.72C212.575 203.764 212.674 203.83 212.757 203.912C212.84 203.995 212.906 204.093 212.951 204.201C212.996 204.309 213.019 204.425 213.019 204.542C213.019 204.659 212.996 204.775 212.951 204.883C212.906 204.992 212.84 205.09 212.757 205.172C212.674 205.255 212.575 205.321 212.467 205.365C212.359 205.41 212.243 205.433 212.125 205.432Z" fill="#8B9AA5"/>
<path d="M243.51 195.82H222.468C222.231 195.82 222.005 195.726 221.837 195.559C221.67 195.392 221.576 195.166 221.576 194.93C221.576 194.694 221.67 194.467 221.837 194.3C222.005 194.133 222.231 194.04 222.468 194.04H243.51C243.747 194.04 243.973 194.133 244.141 194.3C244.308 194.467 244.402 194.694 244.402 194.93C244.402 195.166 244.308 195.392 244.141 195.559C243.973 195.726 243.747 195.82 243.51 195.82Z" fill="#8B9AA5"/>
<path d="M243.51 205.432H222.468C222.231 205.432 222.005 205.339 221.837 205.172C221.67 205.005 221.576 204.778 221.576 204.542C221.576 204.306 221.67 204.08 221.837 203.913C222.005 203.746 222.231 203.652 222.468 203.652H243.51C243.747 203.652 243.973 203.746 244.141 203.913C244.308 204.08 244.402 204.306 244.402 204.542C244.402 204.778 244.308 205.005 244.141 205.172C243.973 205.339 243.747 205.432 243.51 205.432Z" fill="#8B9AA5"/>
<path d="M278.819 195.82H257.776C257.54 195.82 257.313 195.726 257.146 195.559C256.979 195.392 256.885 195.166 256.885 194.93C256.885 194.694 256.979 194.467 257.146 194.3C257.313 194.133 257.54 194.04 257.776 194.04H278.819C279.055 194.04 279.282 194.133 279.449 194.3C279.616 194.467 279.71 194.694 279.71 194.93C279.71 195.166 279.616 195.392 279.449 195.559C279.282 195.726 279.055 195.82 278.819 195.82Z" fill="#8B9AA5"/>
<path d="M292.727 185.851H177.173C176.937 185.851 176.71 185.758 176.543 185.591C176.376 185.424 176.282 185.197 176.282 184.961C176.282 184.725 176.376 184.499 176.543 184.332C176.71 184.165 176.937 184.071 177.173 184.071H292.727C292.964 184.071 293.191 184.165 293.358 184.332C293.525 184.499 293.619 184.725 293.619 184.961C293.619 185.197 293.525 185.424 293.358 185.591C293.191 185.758 292.964 185.851 292.727 185.851Z" fill="#8B9AA5"/>
<path d="M159.698 185.851H138.655C138.419 185.851 138.192 185.758 138.025 185.591C137.858 185.424 137.764 185.197 137.764 184.961C137.764 184.725 137.858 184.499 138.025 184.332C138.192 184.165 138.419 184.071 138.655 184.071H159.698C159.934 184.071 160.161 184.165 160.328 184.332C160.495 184.499 160.589 184.725 160.589 184.961C160.589 185.197 160.495 185.424 160.328 185.591C160.161 185.758 159.934 185.851 159.698 185.851Z" fill="#8B9AA5"/>
<path d="M292.728 215.4H177.174C177.057 215.4 176.94 215.378 176.832 215.333C176.724 215.288 176.625 215.223 176.542 215.14C176.459 215.057 176.393 214.959 176.348 214.851C176.303 214.743 176.28 214.627 176.28 214.51C176.28 214.393 176.303 214.277 176.348 214.169C176.393 214.061 176.459 213.963 176.542 213.88C176.625 213.797 176.724 213.732 176.832 213.687C176.94 213.643 177.057 213.62 177.174 213.62H292.728C292.964 213.62 293.191 213.714 293.358 213.881C293.525 214.048 293.619 214.274 293.619 214.51C293.619 214.746 293.525 214.973 293.358 215.14C293.191 215.306 292.964 215.4 292.728 215.4Z" fill="#8B9AA5"/>
<path d="M159.698 215.4H138.656C138.538 215.4 138.422 215.378 138.314 215.333C138.206 215.288 138.107 215.223 138.024 215.14C137.941 215.057 137.875 214.959 137.83 214.851C137.785 214.743 137.762 214.627 137.762 214.51C137.762 214.393 137.785 214.277 137.83 214.169C137.875 214.061 137.941 213.963 138.024 213.88C138.107 213.797 138.206 213.732 138.314 213.687C138.422 213.643 138.538 213.62 138.656 213.62H159.698C159.815 213.62 159.931 213.643 160.04 213.687C160.148 213.732 160.247 213.797 160.33 213.88C160.413 213.963 160.478 214.061 160.523 214.169C160.568 214.277 160.591 214.393 160.591 214.51C160.591 214.627 160.568 214.743 160.523 214.851C160.478 214.959 160.413 215.057 160.33 215.14C160.247 215.223 160.148 215.288 160.04 215.333C159.931 215.378 159.815 215.4 159.698 215.4Z" fill="#8B9AA5"/>
<path d="M194.56 94.5334L166.028 122.659L194.56 150.784L200.98 144.376L179.403 122.837L201.158 101.12L194.56 94.5334Z" fill="#35B999"/>
<path d="M236.645 94.5334L265.177 122.659L236.645 150.784L230.225 144.376L251.802 122.837L230.047 101.12L236.645 94.5334Z" fill="#35B999"/>
<path d="M75.6179 11.4879C77.5864 11.4879 79.1821 9.89494 79.1821 7.92997C79.1821 5.96499 77.5864 4.37207 75.6179 4.37207C73.6495 4.37207 72.0537 5.96499 72.0537 7.92997C72.0537 9.89494 73.6495 11.4879 75.6179 11.4879Z" fill="#F07A97"/>
<path d="M85.1228 11.4879C87.0913 11.4879 88.687 9.89494 88.687 7.92997C88.687 5.96499 87.0913 4.37207 85.1228 4.37207C83.1543 4.37207 81.5586 5.96499 81.5586 7.92997C81.5586 9.89494 83.1543 11.4879 85.1228 11.4879Z" fill="#F7D86B"/>
<path d="M94.6272 11.4879C96.5957 11.4879 98.1914 9.89494 98.1914 7.92997C98.1914 5.96499 96.5957 4.37207 94.6272 4.37207C92.6587 4.37207 91.063 5.96499 91.063 7.92997C91.063 9.89494 92.6587 11.4879 94.6272 11.4879Z" fill="#5AC5A1"/>
<path d="M364.508 14.8599H66.6978V16.0458H364.508V14.8599Z" fill="#63647B"/>
<g style="mix-blend-mode:multiply" filter="url(#filter1_f)">
<rect x="283" y="42" width="169" height="96" fill="#C4C4C4"/>
</g>
<path d="M448.77 22H286.772C285.241 22 284 23.2388 284 24.7669V128.961C284 130.489 285.241 131.728 286.772 131.728H448.77C450.301 131.728 451.542 130.489 451.542 128.961V24.7669C451.542 23.2388 450.301 22 448.77 22Z" fill="#03363D"/>
<path d="M284 34.4465V128.984C284 129.717 284.292 130.421 284.812 130.94C285.332 131.459 286.037 131.751 286.772 131.751H448.77C449.505 131.751 450.21 131.459 450.73 130.94C451.25 130.421 451.542 129.717 451.542 128.984V34.4465H284Z" fill="#1C5955"/>
<path d="M293.95 46.8977C293.95 45.5373 294.745 44.7026 295.849 44.7026C296.069 44.7038 296.286 44.7503 296.487 44.8392C296.688 44.9281 296.869 45.0574 297.017 45.2191L296.703 45.5604C296.596 45.4407 296.464 45.3451 296.317 45.2799C296.169 45.2148 296.01 45.1815 295.849 45.1822C295.04 45.1822 294.509 45.8325 294.509 46.8885C294.509 47.9446 295.04 48.6178 295.849 48.6178C296.032 48.6176 296.213 48.576 296.377 48.4961C296.542 48.4162 296.687 48.3002 296.8 48.1567L297.114 48.4887C296.956 48.6845 296.756 48.8416 296.527 48.9479C296.299 49.0542 296.05 49.107 295.798 49.1021C294.768 49.0975 293.95 48.2812 293.95 46.8977Z" fill="#35B999"/>
<path d="M298.842 46.2336C298.835 46.1607 298.844 46.0872 298.867 46.0178C298.89 45.9484 298.928 45.8846 298.977 45.8305C299.026 45.7764 299.087 45.7331 299.154 45.7036C299.221 45.674 299.293 45.6587 299.366 45.6587C299.44 45.6587 299.512 45.674 299.579 45.7036C299.646 45.7331 299.706 45.7764 299.756 45.8305C299.805 45.8846 299.843 45.9484 299.866 46.0178C299.889 46.0872 299.898 46.1607 299.891 46.2336C299.898 46.3065 299.889 46.38 299.866 46.4494C299.843 46.5188 299.805 46.5826 299.756 46.6367C299.706 46.6908 299.646 46.734 299.579 46.7636C299.512 46.7932 299.44 46.8085 299.366 46.8085C299.293 46.8085 299.221 46.7932 299.154 46.7636C299.087 46.734 299.026 46.6908 298.977 46.6367C298.928 46.5826 298.89 46.5188 298.867 46.4494C298.844 46.38 298.835 46.3065 298.842 46.2336ZM298.842 48.5394C298.835 48.4665 298.844 48.393 298.867 48.3236C298.89 48.2542 298.928 48.1904 298.977 48.1363C299.026 48.0822 299.087 48.0389 299.154 48.0093C299.221 47.9798 299.293 47.9645 299.366 47.9645C299.44 47.9645 299.512 47.9798 299.579 48.0093C299.646 48.0389 299.706 48.0822 299.756 48.1363C299.805 48.1904 299.843 48.2542 299.866 48.3236C299.889 48.393 299.898 48.4665 299.891 48.5394C299.898 48.6122 299.889 48.6857 299.866 48.7551C299.843 48.8246 299.805 48.8884 299.756 48.9425C299.706 48.9966 299.646 49.0398 299.579 49.0694C299.512 49.099 299.44 49.1143 299.366 49.1143C299.293 49.1143 299.221 49.099 299.154 49.0694C299.087 49.0398 299.026 48.9966 298.977 48.9425C298.928 48.8884 298.89 48.8246 298.867 48.7551C298.844 48.6857 298.835 48.6122 298.842 48.5394Z" fill="#35B999"/>
<path d="M301.946 44.4307H302.408L304.528 50.0522H304.067L301.946 44.4307Z" fill="#35B999"/>
<path d="M305.877 48.1936L307.808 46.8885V46.8609L305.863 45.5558V45.0393L308.279 46.6672V47.0822L305.863 48.7101L305.877 48.1936Z" fill="#35B999"/>
<path d="M311 49H314.104V49.4612H311V49Z" fill="#35B999"/>
<defs>
<filter id="filter0_f" x="27.144" y="213.52" width="371.373" height="46.2081" filterUnits="userSpaceOnUse" color-interpolation-filters="sRGB">
<feFlood flood-opacity="0" result="BackgroundImageFix"/>
<feBlend mode="normal" in="SourceGraphic" in2="BackgroundImageFix" result="shape"/>
<feGaussianBlur stdDeviation="7.5" result="effect1_foregroundBlur"/>
</filter>
<filter id="filter1_f" x="253" y="12" width="229" height="156" filterUnits="userSpaceOnUse" color-interpolation-filters="sRGB">
<feFlood flood-opacity="0" result="BackgroundImageFix"/>
<feBlend mode="normal" in="SourceGraphic" in2="BackgroundImageFix" result="shape"/>
<feGaussianBlur stdDeviation="15" result="effect1_foregroundBlur"/>
</filter>
</defs>
</svg>
